<svg width="19" height="19" viewBox="0 0 19 19" fill="none" xmlns="http://www.w3.org/2000/svg">
<path id="Vector" d="M3.10469 3.16162C-0.387106 6.69138 -0.368129 12.4035 3.16162 15.8953C6.69138 19.3871 12.4035 19.3681 15.8953 15.8384C19.3871 12.3086 19.3681 6.59649 15.8384 3.10469C12.3086 -0.387105 6.59649 -0.368129 3.10469 3.16162ZM13.8837 7.77308L8.98762 12.7261C8.57012 13.1436 7.88694 13.1436 7.46944 12.7261L7.27967 12.5363L6.71035 11.967L5.11627 10.3919C4.69878 9.97443 4.69878 9.29125 5.11627 8.87375C5.53377 8.45626 6.21695 8.45626 6.63445 8.87375L8.22853 10.4489L12.3656 6.27388C12.7831 5.85638 13.4662 5.85638 13.8837 6.27388C14.3012 6.6724 14.3012 7.35558 13.8837 7.77308Z" fill="#0EF3A5"/>
</svg>
