<svg width="58" height="58" viewBox="0 0 58 58" fill="none" xmlns="http://www.w3.org/2000/svg">
<rect x="1" y="1" width="56" height="56" rx="28" stroke="url(#paint0_linear_17_46)" stroke-opacity="0.3"/>
<path d="M19.5 29C19.5 24.5217 19.5 22.2825 20.8912 20.8912C22.2825 19.5 24.5217 19.5 29 19.5C33.4783 19.5 35.7175 19.5 37.1088 20.8912C38.5 22.2825 38.5 24.5217 38.5 29C38.5 33.4783 38.5 35.7175 37.1088 37.1088C35.7175 38.5 33.4783 38.5 29 38.5C24.5217 38.5 22.2825 38.5 20.8912 37.1088C19.5 35.7175 19.5 33.4783 19.5 29Z" stroke="#1E7759" stroke-width="1.5" stroke-linejoin="round"/>
<path d="M33.5 29C33.5 31.4853 31.4853 33.5 29 33.5C26.5147 33.5 24.5 31.4853 24.5 29C24.5 26.5147 26.5147 24.5 29 24.5C31.4853 24.5 33.5 26.5147 33.5 29Z" stroke="#1E7759" stroke-width="1.5"/>
<path d="M34.5078 23.5H34.4988" stroke="#1E7759" stroke-width="2" stroke-linecap="round" stroke-linejoin="round"/>
<defs>
<linearGradient id="paint0_linear_17_46" x1="57" y1="29" x2="1" y2="29" gradientUnits="userSpaceOnUse">
<stop stop-color="#0F0F0F"/>
<stop offset="0.5" stop-color="#0EF3A5"/>
<stop offset="1" stop-color="#0F0F0F"/>
</linearGradient>
</defs>
</svg>
