<svg width="184" height="21" viewBox="0 0 184 21" fill="none" xmlns="http://www.w3.org/2000/svg">
<path d="M6.495 0.589844C9.7725 0.589844 12.03 2.76984 12.03 6.05734C12.03 9.34484 9.695 11.5248 6.33 11.5248H3.3425V16.5623H0V0.589844H6.4975H6.495ZM3.34 8.91234H5.5975C7.5125 8.91234 8.63 7.89484 8.63 6.06734C8.63 4.23984 7.5225 3.23484 5.6075 3.23484H3.3375V8.91234H3.34Z" fill="white"/>
<path d="M12.5898 4.69727H15.7123V6.83477H15.7798C16.1998 5.32977 17.2073 4.50977 18.6023 4.50977C18.9798 4.50977 19.2998 4.56477 19.5198 4.63227V7.47727C19.2548 7.36727 18.8123 7.28977 18.3473 7.28977C16.7523 7.28977 15.8248 8.26477 15.8248 9.93477V16.5648H12.5923V4.69977L12.5898 4.69727Z" fill="white"/>
<path d="M18.885 10.617C18.885 6.77695 21.21 4.43945 24.7625 4.43945C28.315 4.43945 30.64 6.76445 30.64 10.617C30.64 14.4695 28.35 16.8145 24.7625 16.8145C21.175 16.8145 18.885 14.512 18.885 10.617ZM27.3525 10.627C27.3525 8.26945 26.335 6.90695 24.7625 6.90695C23.19 6.90695 22.1625 8.26945 22.1625 10.627C22.1625 12.9845 23.17 14.347 24.7625 14.347C26.355 14.347 27.3525 13.007 27.3525 10.627Z" fill="white"/>
<path d="M42.1224 16.5623H38.9999V14.4248H38.9324C38.3449 15.9198 37.1724 16.7823 35.3799 16.7823C32.8124 16.7823 31.1074 15.1098 31.1074 12.3448V4.69727H34.3399V11.6698C34.3399 13.2523 35.1249 14.0948 36.5524 14.0948C37.9799 14.0948 38.8874 13.0648 38.8874 11.4948V4.69977H42.1199V16.5648L42.1224 16.5623Z" fill="white"/>
<path d="M42.6624 10.6073C42.6624 6.84484 44.5449 4.50735 47.5224 4.50735C49.2374 4.50735 50.5673 5.41484 51.1423 6.73234H51.2099V0.589844H54.4424V16.5623H51.2549V14.5248H51.1999C50.6249 15.8298 49.2523 16.7498 47.5023 16.7498C44.5348 16.7498 42.6648 14.4023 42.6648 10.6073H42.6624ZM45.9724 10.6298C45.9724 12.8098 46.9673 14.1498 48.5948 14.1498C50.2223 14.1498 51.2299 12.7998 51.2299 10.6298C51.2299 8.45984 50.1998 7.09984 48.5948 7.09984C46.9898 7.09984 45.9724 8.46234 45.9724 10.6298Z" fill="white"/>
<path d="M55.54 0.589844H58.7725V16.5623H55.54V0.589844Z" fill="white"/>
<path d="M60.1201 20.9228V18.4328C60.2201 18.4553 60.8076 18.4553 60.9276 18.4553C62.1126 18.4553 62.6976 18.0778 62.9201 17.1378C62.9201 17.0928 63.0426 16.6178 63.0201 16.5728L58.8926 4.69531H62.4451L64.9676 13.9703H65.0226L67.5451 4.69531H70.9551L66.8701 16.8278C65.8526 19.8728 64.3676 20.9553 61.3351 20.9553C61.2251 20.9553 60.2176 20.9453 60.1176 20.9228H60.1201Z" fill="white"/>
<path d="M85.7924 10.6298C85.7924 14.4473 83.9549 16.7498 80.9874 16.7498C79.2599 16.7498 77.9324 15.9098 77.3024 14.5698H77.2349V20.4373H74.0024V4.69727H77.1899V6.76727H77.2574C77.8999 5.37227 79.2174 4.50977 80.9324 4.50977C83.9424 4.50977 85.7924 6.79977 85.7924 10.6298ZM82.4824 10.6298C82.4824 8.48227 81.4649 7.09977 79.8474 7.09977C78.2299 7.09977 77.2249 8.50477 77.2249 10.6298C77.2249 12.7548 78.2649 14.1498 79.8474 14.1498C81.4299 14.1498 82.4824 12.7873 82.4824 10.6298Z" fill="white"/>
<path d="M85.8875 10.617C85.8875 6.77695 88.2125 4.43945 91.765 4.43945C95.3175 4.43945 97.6424 6.76445 97.6424 10.617C97.6424 14.4695 95.3525 16.8145 91.765 16.8145C88.1775 16.8145 85.8875 14.512 85.8875 10.617ZM94.3549 10.627C94.3549 8.26945 93.3375 6.90695 91.765 6.90695C90.1925 6.90695 89.1649 8.26945 89.1649 10.627C89.1649 12.9845 90.1725 14.347 91.765 14.347C93.3575 14.347 94.3549 13.007 94.3549 10.627Z" fill="white"/>
<path d="M111.562 16.5623H108.12L105.972 8.17227H105.905L103.767 16.5623H100.37L97.2148 4.69727H100.47L102.262 13.4973H102.33L104.432 4.69727H107.532L109.647 13.4973H109.715L111.52 4.69727H114.707L111.565 16.5623H111.562Z" fill="white"/>
<path d="M125.495 12.9324C125.14 15.2574 123.015 16.8174 120.082 16.8174C116.43 16.8174 114.237 14.4824 114.237 10.6849C114.237 6.88738 116.45 4.44238 119.96 4.44238C123.47 4.44238 125.595 6.77738 125.595 10.3874V11.3724H117.415V11.5724C117.415 13.2649 118.487 14.4274 120.137 14.4274C121.322 14.4274 122.23 13.8399 122.527 12.9324H125.495ZM117.447 9.38988H122.485C122.417 7.87238 121.432 6.83238 119.995 6.83238C118.557 6.83238 117.56 7.90488 117.45 9.38988H117.447Z" fill="white"/>
<path d="M126.12 4.69727H129.242V6.83477H129.31C129.73 5.32977 130.737 4.50977 132.132 4.50977C132.51 4.50977 132.83 4.56477 133.05 4.63227V7.47727C132.785 7.36727 132.342 7.28977 131.877 7.28977C130.282 7.28977 129.355 8.26477 129.355 9.93477V16.5648H126.122V4.69977L126.12 4.69727Z" fill="white"/>
<path d="M143.67 12.9324C143.315 15.2574 141.19 16.8174 138.258 16.8174C134.605 16.8174 132.413 14.4824 132.413 10.6849C132.413 6.88738 134.625 4.44238 138.135 4.44238C141.645 4.44238 143.77 6.77738 143.77 10.3874V11.3724H135.59V11.5724C135.59 13.2649 136.663 14.4274 138.313 14.4274C139.498 14.4274 140.405 13.8399 140.703 12.9324H143.67ZM135.623 9.38988H140.66C140.593 7.87238 139.608 6.83238 138.17 6.83238C136.733 6.83238 135.735 7.90488 135.625 9.38988H135.623Z" fill="white"/>
<path d="M143.865 10.6073C143.865 6.84484 145.747 4.50735 148.725 4.50735C150.44 4.50735 151.77 5.41484 152.345 6.73234H152.412V0.589844H155.645V16.5623H152.458V14.5248H152.402C151.827 15.8298 150.455 16.7498 148.705 16.7498C145.738 16.7498 143.867 14.4023 143.867 10.6073H143.865ZM147.175 10.6298C147.175 12.8098 148.17 14.1498 149.798 14.1498C151.425 14.1498 152.432 12.7998 152.432 10.6298C152.432 8.45984 151.403 7.09984 149.798 7.09984C148.193 7.09984 147.175 8.46234 147.175 10.6298Z" fill="white"/>
<path d="M163.463 14.5248H163.395V16.5623H160.208V0.589844H163.44V6.75484H163.508C164.16 5.34984 165.478 4.50735 167.17 4.50735C170.158 4.50735 171.995 6.79734 171.995 10.6273C171.995 14.4573 170.168 16.7473 167.18 16.7473C165.443 16.7473 164.115 15.9073 163.46 14.5223L163.463 14.5248ZM163.43 10.6298C163.43 12.7773 164.493 14.1498 166.065 14.1498C167.638 14.1498 168.688 12.7998 168.688 10.6298C168.688 8.45984 167.67 7.09984 166.065 7.09984C164.46 7.09984 163.43 8.50484 163.43 10.6298Z" fill="white"/>
<path d="M172.558 20.9228V18.4328C172.658 18.4553 173.245 18.4553 173.365 18.4553C174.55 18.4553 175.135 18.0778 175.358 17.1378C175.358 17.0928 175.48 16.6178 175.458 16.5728L171.33 4.69531H174.883L177.405 13.9703H177.46L179.983 4.69531H183.393L179.308 16.8278C178.29 19.8728 176.805 20.9553 173.773 20.9553C173.663 20.9553 172.655 20.9453 172.555 20.9228H172.558Z" fill="white"/>
</svg>
