<svg width="36" height="36" viewBox="0 0 36 36" fill="none" xmlns="http://www.w3.org/2000/svg">
<path d="M33.9873 0H2.0148C1.02759 0 0.227295 0.800291 0.227295 1.7875V33.76C0.227295 34.7472 1.02759 35.5475 2.0148 35.5475H33.9873C34.9745 35.5475 35.7748 34.7472 35.7748 33.76V1.7875C35.7748 0.800291 34.9745 0 33.9873 0Z" fill="#1C3148"/>
<path d="M25.8149 14.8701C27.3374 14.8701 28.3724 16.4176 27.7899 17.8251L26.4624 21.0326C25.8124 22.6051 24.2774 23.6301 22.5774 23.6301H17.7699L16.8999 25.7351C16.7199 26.1726 16.2924 26.4576 15.8174 26.4576H12.5074L13.6774 23.6301L14.9274 20.6076H22.4399L23.3474 18.4101C23.4624 18.1326 23.2574 17.8251 22.9574 17.8251H14.2824L13.3724 20.0276C13.1924 20.4651 12.7649 20.7501 12.2899 20.7501H8.84741L10.0574 17.8251L11.2799 14.8701H25.8124H25.8149Z" fill="url(#paint0_linear_1455_729)"/>
<path d="M24.1899 12.0448L23.3199 14.1473H19.1224L19.7499 12.6298C19.8649 12.3523 19.6599 12.0448 19.3574 12.0448H11.1574L10.1499 9.08984H22.2099C23.7324 9.08984 24.7674 10.6373 24.1849 12.0448H24.1899Z" fill="url(#paint1_linear_1455_729)"/>
<defs>
<linearGradient id="paint0_linear_1455_729" x1="11.4524" y1="25.0426" x2="21.8149" y2="15.5126" gradientUnits="userSpaceOnUse">
<stop stop-color="#003CFF"/>
<stop offset="1" stop-color="#04B2FF"/>
</linearGradient>
<linearGradient id="paint1_linear_1455_729" x1="7.3724" y1="21.5048" x2="16.3199" y2="12.0598" gradientUnits="userSpaceOnUse">
<stop stop-color="#003CFF"/>
<stop offset="1" stop-color="#04B2FF"/>
</linearGradient>
</defs>
</svg>
