<svg width="28" height="299" viewBox="0 0 28 299" fill="none" xmlns="http://www.w3.org/2000/svg">
<path d="M13.87 10.8976L13.87 12.8956C13.426 12.9436 13.024 13.1176 12.664 13.4176C12.316 13.7296 12.04 14.1376 11.836 14.6416C11.644 15.1576 11.548 15.7456 11.548 16.4056C11.548 16.9936 11.62 17.4796 11.764 17.8636C11.908 18.2476 12.106 18.5296 12.358 18.7096C12.622 18.9016 12.928 18.9976 13.276 18.9976C13.624 18.9976 13.894 18.8836 14.086 18.6556C14.29 18.4396 14.458 18.1036 14.59 17.6476C14.734 17.1916 14.872 16.6096 15.004 15.9016C15.112 15.3136 15.256 14.7436 15.436 14.1916C15.616 13.6396 15.844 13.1416 16.12 12.6976C16.396 12.2656 16.732 11.9236 17.128 11.6716C17.536 11.4196 18.016 11.2936 18.568 11.2936C19.192 11.2936 19.756 11.4676 20.26 11.8156C20.764 12.1756 21.16 12.7036 21.448 13.3996C21.736 14.0956 21.88 14.9416 21.88 15.9376C21.88 17.4616 21.526 18.6256 20.818 19.4296C20.122 20.2336 19.174 20.6236 17.974 20.5996L17.974 18.6376C18.73 18.6016 19.276 18.3256 19.612 17.8096C19.948 17.2936 20.116 16.6396 20.116 15.8476C20.116 15.1396 19.99 14.5456 19.738 14.0656C19.486 13.5856 19.078 13.3456 18.514 13.3456C18.274 13.3456 18.064 13.3996 17.884 13.5076C17.716 13.6276 17.56 13.8196 17.416 14.0836C17.284 14.3476 17.152 14.7076 17.02 15.1636C16.9 15.6316 16.768 16.2016 16.624 16.8736C16.528 17.4496 16.396 17.9896 16.228 18.4936C16.06 18.9976 15.85 19.4356 15.598 19.8076C15.346 20.1916 15.022 20.4916 14.626 20.7076C14.23 20.9236 13.744 21.0316 13.168 21.0316C12.508 21.0316 11.92 20.8636 11.404 20.5276C10.9 20.1916 10.498 19.6756 10.198 18.9796C9.91 18.2956 9.766 17.4076 9.766 16.3156C9.766 15.4876 9.862 14.7616 10.054 14.1376C10.258 13.5256 10.516 13.0036 10.828 12.5716C11.152 12.1396 11.5 11.7916 11.872 11.5276C12.244 11.2756 12.604 11.0956 12.952 10.9876C13.312 10.8916 13.618 10.8616 13.87 10.8976ZM14.086 39.0441C13.186 38.9241 12.412 38.6061 11.764 38.0901C11.128 37.5741 10.636 36.8841 10.288 36.0201C9.952 35.1681 9.784 34.1721 9.784 33.0321C9.784 32.0481 9.916 31.1421 10.18 30.3141C10.444 29.4981 10.828 28.7841 11.332 28.1721C11.848 27.5721 12.478 27.1041 13.222 26.7681C13.978 26.4441 14.842 26.2821 15.814 26.2821C16.798 26.2821 17.662 26.4441 18.406 26.7681C19.15 27.1041 19.78 27.5721 20.296 28.1721C20.824 28.7841 21.22 29.4981 21.484 30.3141C21.748 31.1421 21.88 32.0481 21.88 33.0321C21.88 34.1841 21.706 35.1861 21.358 36.0381C21.01 36.9021 20.512 37.5921 19.864 38.1081C19.216 38.6241 18.436 38.9361 17.524 39.0441L17.524 37.0641C18.064 36.8961 18.52 36.6321 18.892 36.2721C19.276 35.9121 19.57 35.4561 19.774 34.9041C19.978 34.3641 20.08 33.7401 20.08 33.0321C20.08 32.1441 19.912 31.3461 19.576 30.6381C19.252 29.9301 18.772 29.3721 18.136 28.9641C17.512 28.5681 16.738 28.3701 15.814 28.3701C14.902 28.3701 14.128 28.5681 13.492 28.9641C12.868 29.3721 12.394 29.9301 12.07 30.6381C11.746 31.3461 11.584 32.1441 11.584 33.0321C11.584 33.7401 11.68 34.3641 11.872 34.9041C12.076 35.4441 12.364 35.8941 12.736 36.2541C13.12 36.6141 13.57 36.8781 14.086 37.0461L14.086 39.0441ZM10 44.9927L21.664 44.9927L21.664 51.8867C21.664 52.7507 21.538 53.5007 21.286 54.1367C21.046 54.7727 20.668 55.2647 20.152 55.6127C19.648 55.9607 19 56.1347 18.208 56.1347C17.68 56.1347 17.224 56.0447 16.84 55.8647C16.468 55.6847 16.162 55.4327 15.922 55.1087C15.682 54.7847 15.496 54.4067 15.364 53.9747C15.232 53.5547 15.148 53.1047 15.112 52.6247L15.238 52.4447C15.226 53.2127 15.154 53.8487 15.022 54.3527C14.902 54.8567 14.668 55.2407 14.32 55.5047C13.984 55.7687 13.486 55.9007 12.826 55.9007L10 55.9007L10 53.8667L12.718 53.8667C13.174 53.8667 13.528 53.7827 13.78 53.6147C14.044 53.4587 14.224 53.1827 14.32 52.7867C14.428 52.4027 14.482 51.8507 14.482 51.1307L14.482 47.0447L10 47.0447L10 44.9927ZM16.156 47.0447L16.156 51.8867C16.156 52.6067 16.336 53.1527 16.696 53.5247C17.056 53.8967 17.53 54.0827 18.118 54.0827C18.682 54.0827 19.114 53.8967 19.414 53.5247C19.726 53.1527 19.882 52.6067 19.882 51.8867L19.882 47.0447L16.156 47.0447ZM9.784 68.5333C9.784 67.1653 10.03 65.9713 10.522 64.9513C11.014 63.9433 11.71 63.1573 12.61 62.5933C13.51 62.0413 14.584 61.7653 15.832 61.7653C17.08 61.7653 18.154 62.0413 19.054 62.5933C19.966 63.1573 20.662 63.9433 21.142 64.9513C21.634 65.9713 21.88 67.1653 21.88 68.5333C21.88 69.9133 21.634 71.1073 21.142 72.1153C20.662 73.1233 19.966 73.9033 19.054 74.4553C18.154 75.0193 17.08 75.3013 15.832 75.3013C14.584 75.3013 13.51 75.0193 12.61 74.4553C11.71 73.9033 11.014 73.1233 10.522 72.1153C10.03 71.1073 9.784 69.9133 9.784 68.5333ZM11.584 68.5333C11.584 69.4453 11.74 70.2493 12.052 70.9453C12.364 71.6413 12.832 72.1873 13.456 72.5833C14.092 72.9913 14.884 73.1953 15.832 73.1953C16.768 73.1953 17.548 72.9913 18.172 72.5833C18.808 72.1873 19.282 71.6413 19.594 70.9453C19.918 70.2493 20.08 69.4453 20.08 68.5333C20.08 67.6333 19.918 66.8293 19.594 66.1213C19.282 65.4133 18.808 64.8553 18.172 64.4473C17.548 64.0393 16.768 63.8353 15.832 63.8353C14.884 63.8353 14.092 64.0393 13.456 64.4473C12.832 64.8553 12.364 65.4133 12.052 66.1213C11.74 66.8293 11.584 67.6333 11.584 68.5333ZM21.664 83.3013L11.764 83.3013L11.764 90.5733L10 90.5733L10 81.2493L21.664 81.2493L21.664 83.3013ZM21.664 98.4853L11.764 98.4853L11.764 105.757L10 105.757L10 96.4333L21.664 96.4333L21.664 98.4853ZM21.664 124.964C21.664 126.224 21.508 127.28 21.196 128.132C20.884 128.984 20.458 129.662 19.918 130.166C19.39 130.67 18.778 131.03 18.082 131.246C17.386 131.474 16.654 131.588 15.886 131.588C15.106 131.588 14.362 131.468 13.654 131.228C12.946 130.988 12.316 130.604 11.764 130.076C11.224 129.56 10.792 128.882 10.468 128.042C10.156 127.202 9.99999 126.176 9.99999 124.964L9.99999 119.366L21.664 119.366L21.664 124.964ZM11.8 121.418L11.8 124.946C11.8 125.834 11.914 126.572 12.142 127.16C12.37 127.748 12.676 128.216 13.06 128.564C13.456 128.912 13.894 129.158 14.374 129.302C14.866 129.446 15.37 129.518 15.886 129.518C16.402 129.518 16.894 129.446 17.362 129.302C17.842 129.158 18.268 128.912 18.64 128.564C19.024 128.216 19.324 127.748 19.54 127.16C19.768 126.572 19.882 125.834 19.882 124.946L19.882 121.418L11.8 121.418ZM9.78399 143.803C9.78399 142.435 10.03 141.241 10.522 140.221C11.014 139.213 11.71 138.427 12.61 137.863C13.51 137.311 14.584 137.035 15.832 137.035C17.08 137.035 18.154 137.311 19.054 137.863C19.966 138.427 20.662 139.213 21.142 140.221C21.634 141.241 21.88 142.435 21.88 143.803C21.88 145.183 21.634 146.377 21.142 147.385C20.662 148.393 19.966 149.173 19.054 149.725C18.154 150.289 17.08 150.571 15.832 150.571C14.584 150.571 13.51 150.289 12.61 149.725C11.71 149.173 11.014 148.393 10.522 147.385C10.03 146.377 9.78399 145.183 9.78399 143.803ZM11.584 143.803C11.584 144.715 11.74 145.519 12.052 146.215C12.364 146.911 12.832 147.457 13.456 147.853C14.092 148.261 14.884 148.465 15.832 148.465C16.768 148.465 17.548 148.261 18.172 147.853C18.808 147.457 19.282 146.911 19.594 146.215C19.918 145.519 20.08 144.715 20.08 143.803C20.08 142.903 19.918 142.099 19.594 141.391C19.282 140.683 18.808 140.125 18.172 139.717C17.548 139.309 16.768 139.105 15.832 139.105C14.884 139.105 14.092 139.309 13.456 139.717C12.832 140.125 12.364 140.683 12.052 141.391C11.74 142.099 11.584 142.903 11.584 143.803ZM9.99999 159.486L21.664 154.824L21.664 157.056L11.404 161.016L11.404 160.368L21.664 164.148L21.664 166.47L11.404 170.25L11.404 169.602L21.664 173.562L21.664 175.758L9.99999 171.15L9.99999 168.738L20.242 165.012L20.242 165.624L9.99999 161.88L9.99999 159.486ZM12.124 191.907L11.89 191.295L21.664 191.295L21.664 193.329L9.99999 193.329L9.99999 191.295L19.486 182.547L19.72 183.177L9.99999 183.177L9.99999 181.125L21.664 181.125L21.664 183.177L12.124 191.907Z" fill="#0B5B40"/>
<path d="M14 295V229" stroke="#0B5B40" stroke-width="1.5" stroke-linecap="round" stroke-linejoin="round"/>
<path d="M19 290C19 290 15.3175 295 13.9999 295C12.6823 295 8.99998 290 8.99998 290" stroke="#0B5B40" stroke-width="1.5" stroke-linecap="round" stroke-linejoin="round"/>
</svg>
