<svg xmlns="http://www.w3.org/2000/svg" width="30" height="30" viewBox="0 0 30 30" fill="none">
<path d="M12.7819 2.47373H8.0661C5.59008 2.47373 4.3521 2.47374 3.4064 2.95555C2.57452 3.37941 1.89818 4.05574 1.47433 4.88762C0.992432 5.83333 0.992432 7.07138 0.992432 9.54741V21.9263C0.992432 24.4024 0.992432 25.6402 1.47433 26.5861C1.89818 27.418 2.57452 28.0943 3.4064 28.5181C4.3521 29 5.59008 29 8.0661 29H20.445C22.9211 29 24.159 29 25.1048 28.5181C25.9367 28.0943 26.6129 27.418 27.0368 26.5861C27.5187 25.6402 27.5187 24.4024 27.5187 21.9263V17.2105M14.2556 9.84209H20.1503V15.7369M19.4135 3.21052V1M25.2187 4.77364L26.7818 3.21052M26.797 10.579H29.0075M0.992432 17.7221C1.95316 17.8705 2.93753 17.9474 3.93982 17.9474C10.4039 17.9474 16.1202 14.7459 19.5898 9.84209" stroke="white" stroke-width="2" stroke-linecap="round" stroke-linejoin="round"/>
</svg>