<svg xmlns="http://www.w3.org/2000/svg" width="30" height="30" viewBox="0 0 30 30" fill="none">
<path d="M9.4 17.8C9.4 17.8 11.5 20.6 15 20.6C18.5 20.6 20.6 17.8 20.6 17.8M19.2 10.8H19.214M10.8 10.8H10.814M29 15C29 22.7319 22.7319 29 15 29C7.26802 29 1 22.7319 1 15C1 7.26802 7.26802 1 15 1C22.7319 1 29 7.26802 29 15ZM19.9 10.8C19.9 11.1866 19.5865 11.5 19.2 11.5C18.8135 11.5 18.5 11.1866 18.5 10.8C18.5 10.4134 18.8135 10.1 19.2 10.1C19.5865 10.1 19.9 10.4134 19.9 10.8ZM11.5 10.8C11.5 11.1866 11.1866 11.5 10.8 11.5C10.4134 11.5 10.1 11.1866 10.1 10.8C10.1 10.4134 10.4134 10.1 10.8 10.1C11.1866 10.1 11.5 10.4134 11.5 10.8Z" stroke="white" stroke-width="2" stroke-linecap="round" stroke-linejoin="round"/>
</svg>