<svg width="58" height="58" viewBox="0 0 58 58" fill="none" xmlns="http://www.w3.org/2000/svg">
<rect x="1" y="1" width="56" height="56" rx="28" stroke="url(#paint0_linear_17_51)" stroke-opacity="0.3"/>
<path d="M29 37.5C30.8097 37.5 32.5451 37.3212 34.1534 36.9934C36.1623 36.5839 37.1668 36.3791 38.0834 35.2006C39 34.0221 39 32.6693 39 29.9635V28.0365C39 25.3307 39 23.9779 38.0834 22.7994C37.1668 21.6209 36.1623 21.4161 34.1534 21.0066C32.5451 20.6788 30.8097 20.5 29 20.5C27.1903 20.5 25.4549 20.6788 23.8466 21.0066C21.8377 21.4161 20.8332 21.6209 19.9166 22.7994C19 23.9779 19 25.3307 19 28.0365V29.9635C19 32.6693 19 34.0221 19.9166 35.2006C20.8332 36.3791 21.8377 36.5839 23.8466 36.9934C25.4549 37.3212 27.1903 37.5 29 37.5Z" stroke="#1E7759" stroke-width="1.5"/>
<path d="M32.9621 29.3129C32.8137 29.9187 32.0241 30.3538 30.4449 31.2241C28.7272 32.1705 27.8684 32.6438 27.1728 32.4615C26.9372 32.3997 26.7202 32.2911 26.538 32.1438C26 31.7089 26 30.8059 26 29C26 27.1941 26 26.2911 26.538 25.8562C26.7202 25.7089 26.9372 25.6003 27.1728 25.5385C27.8684 25.3562 28.7272 25.8294 30.4449 26.7759C32.0241 27.6462 32.8137 28.0813 32.9621 28.6871C33.0126 28.8933 33.0126 29.1067 32.9621 29.3129Z" stroke="#1E7759" stroke-width="1.5" stroke-linejoin="round"/>
<defs>
<linearGradient id="paint0_linear_17_51" x1="1" y1="29" x2="57" y2="29" gradientUnits="userSpaceOnUse">
<stop stop-color="#0F0F0F"/>
<stop offset="0.5" stop-color="#0EF3A5"/>
<stop offset="1" stop-color="#0F0F0F"/>
</linearGradient>
</defs>
</svg>
